Run_50002
nRows=4
nColumns=164

# SIMM Motion File Header:
name Run_50002
datacolumns 164
datarows 4
otherdata 1
range 0.98333300 1.00833300
endheader
time	pelvis_tilt	pelvis_list	pelvis_rotation	pelvis_tx	pelvis_ty	pelvis_tz	hip_flexion_r	hip_adduction_r	hip_rotation_r	knee_angle_r	ankle_angle_r	hip_flexion_l	hip_adduction_l	hip_rotation_l	knee_angle_l	ankle_angle_l	lumbar_extension	lumbar_bending	lumbar_rotation	arm_flex_r	arm_add_r	arm_rot_r	elbow_flex_r	pro_sup_r	arm_flex_l	arm_add_l	arm_rot_l	elbow_flex_l	pro_sup_l	subtalar_angle_r	mtp_angle_r	subtalar_angle_l	mtp_angle_l	wrist_flex_r	wrist_dev_r	wrist_flex_l	wrist_dev_l	LASI_tx	LASI_ty	LASI_tz	RASI_tx	RASI_ty	RASI_tz	LPSI_tx	LPSI_ty	LPSI_tz	RPSI_tx	RPSI_ty	RPSI_tz	RTH1_tx	RTH1_ty	RTH1_tz	RTH2_tx	RTH2_ty	RTH2_tz	RTH3_tx	RTH3_ty	RTH3_tz	LTH1_tx	LTH1_ty	LTH1_tz	LTH2_tx	LTH2_ty	LTH2_tz	LTH3_tx	LTH3_ty	LTH3_tz	RTB1_tx	RTB1_ty	RTB1_tz	RTB2_tx	RTB2_ty	RTB2_tz	RTB3_tx	RTB3_ty	RTB3_tz	LTB1_tx	LTB1_ty	LTB1_tz	LTB2_tx	LTB2_ty	LTB2_tz	LTB3_tx	LTB3_ty	LTB3_tz	RCAL_tx	RCAL_ty	RCAL_tz	RTOE_tx	RTOE_ty	RTOE_tz	RMT5_tx	RMT5_ty	RMT5_tz	LCAL_tx	LCAL_ty	LCAL_tz	LTOE_tx	LTOE_ty	LTOE_tz	LMT5_tx	LMT5_ty	LMT5_tz	LACR_tx	LACR_ty	LACR_tz	RACR_tx	RACR_ty	RACR_tz	CLAV_tx	CLAV_ty	CLAV_tz	C7_tx	C7_ty	C7_tz	RUA1_tx	RUA1_ty	RUA1_tz	RUA2_tx	RUA2_ty	RUA2_tz	RUA3_tx	RUA3_ty	RUA3_tz	RLEL_tx	RLEL_ty	RLEL_tz	RMEL_tx	RMEL_ty	RMEL_tz	LUA1_tx	LUA1_ty	LUA1_tz	LUA2_tx	LUA2_ty	LUA2_tz	LUA3_tx	LUA3_ty	LUA3_tz	LLEL_tx	LLEL_ty	LLEL_tz	LMEL_tx	LMEL_ty	LMEL_tz	RFAsuperior_tx	RFAsuperior_ty	RFAsuperior_tz	RFAradius_tx	RFAradius_ty	RFAradius_tz	RFAulna_tx	RFAulna_ty	RFAulna_tz	LFAsuperior_tx	LFAsuperior_ty	LFAsuperior_tz	LFAradius_tx	LFAradius_ty	LFAradius_tz	LFAulna_tx	LFAulna_ty	LFAulna_tz
      0.98333300	     -4.28237633	     -4.33881762	     -9.85297692	      0.92030908	      1.01266398	     -0.61828153	      3.86341552	     10.12791682	      9.60435500	    -40.02220595	     27.74328976	     47.28444386	     -6.06372519	     -6.06728398	   -119.46588287	      8.02432321	    -18.21789394	      4.59155776	     19.37998041	      3.35045496	    -36.61660980	     -9.76454310	    115.77549091	    117.20856354	    -19.08913524	    -25.61238522	     18.18871920	    102.15004932	    101.32311267	      0.00000000	      0.00000000	      0.00000000	      0.00000000	      0.00000000	      0.00000000	      0.00000000	      0.00000000	      0.93491942	      1.01576427	     -0.75695395	      0.89950517	      1.02828947	     -0.49481831	      0.74797485	      1.06503796	     -0.69450248	      0.73719257	      1.06740842	     -0.61376325	      0.81481834	      0.86783176	     -0.45067226	      0.86038388	      0.75395143	     -0.45441156	      0.78305581	      0.64465082	     -0.49641392	      0.95346568	      0.83054328	     -0.80014263	      1.08019709	      0.77285119	     -0.78230758	      1.09004354	      0.65446059	     -0.76281116	      0.76604921	      0.34885168	     -0.58444900	      0.71131484	      0.30260403	     -0.52171782	      0.65925486	      0.22454180	     -0.59629319	      1.06847890	      0.50492498	     -0.68495032	      0.97642930	      0.50615938	     -0.73673245	      0.86968202	      0.46001887	     -0.67282939	      0.46487142	      0.14279811	     -0.61509297	      0.68580438	      0.06660839	     -0.63846963	      0.61076325	      0.04891198	     -0.54592432	      0.70276649	      0.52443503	     -0.65938956	      0.76099010	      0.29755222	     -0.65651796	      0.71803714	      0.35981955	     -0.74258100	      0.94970435	      1.48933579	     -0.79516373	      0.97729528	      1.48114101	     -0.45320918	      1.00508457	      1.42760552	     -0.59332543	      0.88439538	      1.52898908	     -0.61029834	      0.97012824	      1.38394177	     -0.36793541	      0.98657015	      1.29768535	     -0.36042352	      0.92080890	      1.28474469	     -0.31684778	      0.94221183	      1.16378146	     -0.24876941	      0.90420130	      1.12864828	     -0.31639757	      0.90533102	      1.41486946	     -0.87552099	      0.89267913	      1.34650773	     -0.87954152	      0.79702322	      1.37310481	     -0.88282966	      0.74102549	      1.23338654	     -0.96223410	      0.68598817	      1.23498026	     -0.89422777	      1.04662220	      1.17861988	     -0.28436035	      1.16631564	      1.19114709	     -0.41757001	      1.19023852	      1.15818087	     -0.35606674	      0.82053644	      1.18304047	     -0.92854400	      0.92915988	      1.11277418	     -0.80853446	      0.91252644	      1.05531960	     -0.84897235
      0.99166700	     -4.57570692	     -2.97337493	    -10.02479080	      0.92316551	      1.01668573	     -0.61665133	      0.38404913	      8.06659191	     10.50542091	    -36.96575962	     24.94826458	     49.67487944	     -5.42555695	     -6.60409233	   -115.38693087	      8.74377494	    -16.90688207	      2.83031048	     20.46030791	      3.82029749	    -35.97308834	    -10.08340524	    118.80973198	    117.39058959	    -20.92846440	    -26.70377321	     17.64389055	    103.93398895	    102.17803081	      0.00000000	      0.00000000	      0.00000000	      0.00000000	      0.00000000	      0.00000000	      0.00000000	      0.00000000	      0.93782269	      1.02197185	     -0.75470353	      0.90119514	      1.02917366	     -0.49307192	      0.75065427	      1.06993851	     -0.69351844	      0.74018213	      1.07080556	     -0.61239081	      0.81117115	      0.87090874	     -0.45101295	      0.84922594	      0.75512777	     -0.45465428	      0.76430640	      0.65048563	     -0.49656970	      0.95968935	      0.84126466	     -0.80060122	      1.08803281	      0.78880412	     -0.78175372	      1.10292243	      0.67038197	     -0.76233107	      0.73394789	      0.35325112	     -0.58259303	      0.67725686	      0.30892855	     -0.51995182	      0.62381426	      0.23135202	     -0.59405333	      1.09160926	      0.51275942	     -0.68477297	      0.99993394	      0.50555850	     -0.73560167	      0.89887184	      0.44741225	     -0.67182723	      0.42946655	      0.15477312	     -0.61265112	      0.64569037	      0.06604595	     -0.63767776	      0.56979331	      0.05046933	     -0.54653964	      0.72588502	      0.49274614	     -0.65565323	      0.81025244	      0.27388591	     -0.65834885	      0.75932813	      0.33274015	     -0.74289667	      0.94457452	      1.49664688	     -0.79543610	      0.97958078	      1.48855246	     -0.45538499	      1.00561920	      1.43441852	     -0.59564020	      0.88366977	      1.53349155	     -0.60966634	      0.97593993	      1.39134998	     -0.37094272	      0.99485128	      1.30549278	     -0.36471991	      0.93116615	      1.29137792	     -0.31820135	      0.95576835	      1.16970063	     -0.25277945	      0.91739638	      1.13440444	     -0.32046186	      0.89736410	      1.42604896	     -0.87553778	      0.88505864	      1.35783814	     -0.88189575	      0.78944127	      1.38480202	     -0.87893095	      0.72942510	      1.24715195	     -0.96009182	      0.67717289	      1.24867492	     -0.89099899	      1.05761946	      1.19169255	     -0.29184544	      1.17078101	      1.21460513	     -0.42913533	      1.19897024	      1.18206736	     -0.36941045	      0.80974075	      1.19705174	     -0.92831155	      0.92001294	      1.12609094	     -0.81039795	      0.90326509	      1.06874293	     -0.85115488
      1.00000000	     -4.81929064	     -1.62145832	     -9.93986368	      0.92692861	      1.02103865	     -0.61561210	     -3.16651250	      5.90964912	     10.88169204	    -33.58025253	     21.21280897	     51.63772132	     -4.63451183	     -7.13444791	   -110.86073119	      9.21456077	    -15.57199379	      1.16155219	     21.19686178	      4.21604820	    -35.31751352	    -10.08816286	    121.77215239	    117.22761967	    -23.01951646	    -27.67192860	     16.78563210	    105.70303505	    102.97829978	      0.00000000	      0.00000000	      0.00000000	      0.00000000	      0.00000000	      0.00000000	      0.00000000	      0.00000000	      0.94111627	      1.02837546	     -0.75288446	      0.90444007	      1.03049823	     -0.49204524	      0.75398128	      1.07512615	     -0.69247468	      0.74378911	      1.07441286	     -0.61083610	      0.80902551	      0.87461973	     -0.45128758	      0.83891453	      0.75760875	     -0.45528072	      0.74674229	      0.65798630	     -0.49644762	      0.96563086	      0.85170203	     -0.80067626	      1.09493982	      0.80423905	     -0.78091441	      1.11386140	      0.68572553	     -0.76246953	      0.70304366	      0.36016144	     -0.58038422	      0.64439954	      0.31779744	     -0.51776726	      0.59017292	      0.23998227	     -0.59144269	      1.11370984	      0.51967507	     -0.68449579	      1.02289906	      0.50371307	     -0.73456933	      0.92916338	      0.43442558	     -0.67075694	      0.39633921	      0.16846158	     -0.61054899	      0.60613133	      0.06503505	     -0.63688646	      0.52974551	      0.05284648	     -0.54706859	      0.75240211	      0.45997470	     -0.65147533	      0.86111040	      0.25211943	     -0.66005683	      0.80239263	      0.30655410	     -0.74269720	      0.93990229	      1.50433666	     -0.79556453	      0.98150578	      1.49661916	     -0.45768916	      1.00611632	      1.44183956	     -0.59801374	      0.88317450	      1.53826752	     -0.60933837	      0.98172734	      1.39943280	     -0.37419355	      1.00260182	      1.31400613	     -0.36920700	      0.94092934	      1.29917954	     -0.32008847	      0.96844442	      1.17664727	     -0.25692454	      0.92996148	      1.14126263	     -0.32459548	      0.89015059	      1.43758964	     -0.87501070	      0.87799302	      1.36940909	     -0.88339680	      0.78277968	      1.39668490	     -0.87442379	      0.71818612	      1.26135655	     -0.95714698	      0.66919064	      1.26272130	     -0.88688648	      1.06718743	      1.20494939	     -0.29934545	      1.17302496	      1.23780833	     -0.44020636	      1.20524384	      1.20542658	     -0.38266078	      0.79886454	      1.21096207	     -0.92799725	      0.91156742	      1.13939567	     -0.81177260	      0.89433121	      1.08236333	     -0.85281350
      1.00833300	     -5.02685780	     -0.23614212	     -9.59808851	      0.93149529	      1.02553075	     -0.61531382	     -6.74903808	      3.66196544	     10.62056085	    -29.93181280	     16.50597337	     53.18344782	     -3.59229954	     -7.69330712	   -105.90169614	      9.42568848	    -14.22119706	     -0.47038870	     21.57579219	      4.53038891	    -34.67862977	     -9.79445849	    124.64650090	    116.87234820	    -25.36421230	    -28.47745951	     15.61427013	    107.44252724	    103.62260991	      0.00000000	      0.00000000	      0.00000000	      0.00000000	      0.00000000	      0.00000000	      0.00000000	      0.00000000	      0.94463020	      1.03510046	     -0.75166660	      0.90928036	      1.03221338	     -0.49191139	      0.75779085	      1.08057918	     -0.69141421	      0.74803135	      1.07828579	     -0.60923194	      0.80780866	      0.87867841	     -0.45147101	      0.82957483	      0.76128804	     -0.45631843	      0.73053877	      0.66690660	     -0.49592558	      0.97132888	      0.86155307	     -0.80037739	      1.10094491	      0.81834152	     -0.77980274	      1.12283301	      0.70001379	     -0.76323840	      0.67355028	      0.36920379	     -0.57796244	      0.61291275	      0.32889984	     -0.51526788	      0.55894456	      0.24989971	     -0.58855952	      1.13498155	      0.52544594	     -0.68399167	      1.04551898	      0.50041116	     -0.73367751	      0.96047978	      0.42106138	     -0.66962888	      0.36617589	      0.18355113	     -0.60881972	      0.56690578	      0.06363842	     -0.63609234	      0.49060310	      0.05604389	     -0.54725887	      0.78219794	      0.42677813	     -0.64728805	      0.91310265	      0.23248735	     -0.66126273	      0.84700375	      0.28114778	     -0.74171395	      0.93586295	      1.51209165	     -0.79558258	      0.98322205	      1.50502965	     -0.46015418	      1.00645653	      1.44961766	     -0.60044644	      0.88294671	      1.54320213	     -0.60933832	      0.98729777	      1.40810407	     -0.37764621	      1.00981386	      1.32305218	     -0.37367664	      0.94999793	      1.30774211	     -0.32236819	      0.98017335	      1.18439530	     -0.26105892	      0.94156277	      1.14887980	     -0.32854466	      0.88376943	      1.44909160	     -0.87404795	      0.87142631	      1.38099487	     -0.88410775	      0.77678496	      1.40853929	     -0.86963065	      0.70732348	      1.27571571	     -0.95349760	      0.66171302	      1.27680211	     -0.88182045	      1.07554478	      1.21822634	     -0.30663754	      1.17330163	      1.26030641	     -0.45068825	      1.20934752	      1.22797880	     -0.39562420	      0.78806528	      1.22450361	     -0.92738212	      0.90383720	      1.15246103	     -0.81283762	      0.88573863	      1.09586370	     -0.85399099
